<?xml version="1.0" encoding="utf-8"?>
<!-- Generator: Adobe Illustrator 25.2.0, SVG Export Plug-In . SVG Version: 6.00 Build 0)  -->
<svg version="1.1" id="Layer_1" xmlns="http://www.w3.org/2000/svg" xmlns:xlink="http://www.w3.org/1999/xlink" x="0px" y="0px"
	 viewBox="0 0 639.8 722.8" style="enable-background:new 0 0 639.8 722.8;" xml:space="preserve">
<style type="text/css">
	.st0{fill:#2A307A;}
</style>
<g>
	<path class="st0" d="M73.6,107.4c146.1,0,291.5,0,437.3,0c-4.6,23.4-9.1,46.1-13.6,69.3c-146.1,0-291.7,0-437.6,0
		c-7.1,35.9-14.1,71.4-21.2,107.6c146.1,0,291.5,0,437.3,0c-8,40.3-15.9,79.9-24,119.5c-0.3,1.5-2.2,3.2-3.7,3.8
		c-56.5,18.9-113.1,37.6-169.7,56.2c-1.9,0.6-4.4,0.6-6.2-0.1c-48.9-18.5-97.7-37.2-146.5-55.8c-2.6-1-3.2-2.2-2.6-4.8
		c1.6-7,2.9-14,4.2-21.1c1.8-9.4,3.7-18.8,5.5-28.1c-0.9-0.2-1.2-0.4-1.5-0.4c-34.2,0-68.3,0-102.5-0.1c-3.3,0-3.6,1.8-4.1,4.3
		c-4.2,21.2-8.4,42.5-12.7,63.7c-4,20.2-8,40.4-12,60.8c1.5,0.7,2.6,1.2,3.8,1.7c81.8,31.3,163.5,62.6,245.4,93.8
		c2.1,0.8,4.9,0.8,7.1,0c94.5-31.3,189-62.7,283.5-93.9c2.9-1,4.3-2.4,4.9-5.3c9.3-47,18.7-94.1,28-141.1
		c20.6-103.2,41.1-206.4,61.7-309.6c1.8-9.2,3.6-18.4,5.4-27.8C457.9,0,276.6,0,95.1,0C88,35.6,80.9,71,73.6,107.4z"/>
	<path class="st0" d="M73.6,107.4C80.9,71,88,35.6,95.1,0c181.5,0,362.7,0,544.7,0c-1.8,9.4-3.6,18.6-5.4,27.8
		c-20.6,103.2-41.1,206.4-61.7,309.6c-9.4,47-18.7,94-28,141.1c-0.6,3-2,4.4-4.9,5.3c-94.5,31.3-189,62.7-283.5,93.9
		c-2.1,0.7-5,0.8-7.1,0c-81.8-31.2-163.6-62.5-245.4-93.8c-1.2-0.5-2.4-1.1-3.8-1.7c4-20.4,8-40.6,12-60.8
		c4.2-21.2,8.5-42.4,12.7-63.7c0.5-2.5,0.8-4.3,4.1-4.3c34.2,0.1,68.3,0.1,102.5,0.1c0.3,0,0.6,0.2,1.5,0.4
		c-1.8,9.3-3.6,18.7-5.5,28.1c-1.4,7-2.7,14.1-4.2,21.1c-0.6,2.6,0.1,3.8,2.6,4.8c48.9,18.6,97.7,37.3,146.5,55.8
		c1.8,0.7,4.3,0.7,6.2,0.1c56.6-18.6,113.2-37.4,169.7-56.2c1.5-0.5,3.4-2.3,3.7-3.8c8.1-39.6,16-79.3,24-119.5
		c-145.8,0-291.2,0-437.3,0c7.1-36.2,14.1-71.7,21.2-107.6c145.9,0,291.5,0,437.6,0c4.6-23.1,9-45.9,13.6-69.3
		C365.1,107.4,219.7,107.4,73.6,107.4z"/>
</g>
</svg>
