<?xml version="1.0" encoding="utf-8"?>
<!-- Generator: Adobe Illustrator 25.2.0, SVG Export Plug-In . SVG Version: 6.00 Build 0)  -->
<svg version="1.1" id="Layer_1" xmlns="http://www.w3.org/2000/svg" xmlns:xlink="http://www.w3.org/1999/xlink" x="0px" y="0px"
	 viewBox="0 0 23 20.5" style="enable-background:new 0 0 23 20.5;" xml:space="preserve">
<style type="text/css">
	.st0{fill:#2A307A;}
</style>
<path class="st0" d="M11.5,8.2c1.1,0,2.1,0.9,2.1,2.1c0,1.1-0.9,2.1-2.1,2.1c-1.1,0-2.1-0.9-2.1-2.1l0,0C9.4,9.1,10.4,8.2,11.5,8.2
	L11.5,8.2"/>
<path class="st0" d="M18.9,6L18.9,6c-0.2-0.1-0.5-0.2-0.7-0.2c0-0.2,0.1-0.3,0.1-0.5c0.6-2.7,0.2-4.9-1.1-5.6C16-1,14-0.3,12.1,1.5
	c-0.2,0.2-0.4,0.3-0.6,0.5c-0.1-0.1-0.3-0.2-0.4-0.4C9.1-0.3,7-1,5.7-0.3C4.5,0.4,4.2,2.4,4.7,5c0.1,0.3,0.1,0.5,0.2,0.8
	C4.5,5.9,4.3,6,4,6.1C1.6,6.9,0,8.3,0,9.7s1.7,2.9,4.2,3.7c0.2,0.1,0.4,0.1,0.6,0.2c-0.1,0.3-0.1,0.5-0.2,0.8
	c-0.5,2.5-0.1,4.5,1.1,5.2c1.2,0.7,3.3,0,5.3-1.8c0.2-0.1,0.3-0.3,0.5-0.4c0.2,0.2,0.4,0.4,0.6,0.6c2,1.7,3.9,2.4,5.1,1.7
	c1.2-0.7,1.6-2.9,1.1-5.5c0-0.2-0.1-0.4-0.1-0.6c0.1,0,0.3-0.1,0.4-0.1c2.6-0.9,4.4-2.3,4.4-3.7C23,8.2,21.4,6.9,18.9,6z M12.7,2.2
	c1.7-1.5,3.3-2.1,4-1.6l0,0c0.8,0.4,1.1,2.2,0.6,4.6c0,0.2-0.1,0.3-0.1,0.5c-1-0.2-2-0.4-3.1-0.5c-0.6-0.9-1.2-1.7-1.9-2.4
	C12.4,2.5,12.5,2.3,12.7,2.2z M6.8,10.8C7,11.2,7.2,11.6,7.5,12c0.2,0.4,0.5,0.8,0.7,1.2c-0.7-0.1-1.4-0.2-2.1-0.3
	C6.2,12.2,6.5,11.5,6.8,10.8z M6.8,8.5c-0.3-0.7-0.5-1.3-0.7-2c0.7-0.1,1.4-0.3,2.1-0.4C7.9,6.5,7.7,6.9,7.4,7.3
	C7.2,7.7,7,8.1,6.8,8.5z M7.3,9.6c0.3-0.6,0.6-1.2,1-1.9l0,0C8.6,7.2,9,6.6,9.4,6c0.7-0.1,1.4-0.1,2.1-0.1c0.7,0,1.4,0,2.1,0.1
	c0.4,0.6,0.8,1.2,1.1,1.8c0.4,0.6,0.7,1.2,1,1.8c-0.3,0.6-0.6,1.3-1,1.9l0,0c-0.3,0.6-0.7,1.2-1.1,1.8c-0.7,0-1.4,0.1-2.1,0.1
	c-0.7,0-1.4,0-2.1-0.1c-0.4-0.6-0.8-1.2-1.1-1.8C7.9,10.9,7.6,10.3,7.3,9.6z M15.6,12c0.2-0.4,0.5-0.8,0.7-1.2l0,0
	c0.3,0.7,0.6,1.3,0.8,2c-0.7,0.2-1.4,0.3-2.1,0.4C15.1,12.8,15.3,12.4,15.6,12L15.6,12z M16.2,8.5c-0.2-0.4-0.4-0.8-0.7-1.2l0,0
	c-0.2-0.4-0.5-0.8-0.7-1.2c0.7,0.1,1.4,0.2,2.1,0.4C16.7,7.2,16.5,7.8,16.2,8.5z M11.5,3.3C12,3.9,12.4,4.4,12.9,5
	c-0.9,0-1.8,0-2.7,0C10.6,4.4,11.1,3.8,11.5,3.3z M6.2,0.5C7,0.1,8.7,0.7,10.5,2.1c0.1,0.1,0.2,0.2,0.3,0.3c-0.7,0.7-1.4,1.4-2,2.2
	c-1,0.1-2.1,0.3-3.1,0.5c0-0.2,0-0.4-0.1-0.6l0,0C5.2,2.4,5.5,0.9,6.2,0.5z M5.1,12.6c-0.2-0.1-0.4-0.1-0.6-0.2
	c-1-0.3-1.9-0.8-2.7-1.4C1.3,10.7,1,10.2,0.9,9.6c0-0.8,1.2-1.9,3.3-2.6C4.5,6.9,4.7,6.8,5,6.8c0.3,1,0.7,2,1.1,2.9
	C5.8,10.6,5.4,11.6,5.1,12.6z M10.4,17.1c-0.8,0.7-1.6,1.2-2.6,1.6l0,0c-0.5,0.2-1.1,0.3-1.6,0.1c-0.7-0.4-1-2-0.6-4.2
	c0-0.3,0.1-0.5,0.2-0.8c1,0.2,2.1,0.4,3.1,0.4c0.6,0.9,1.3,1.7,2,2.4C10.7,16.8,10.6,16.9,10.4,17.1z M11.5,16
	c-0.5-0.5-0.9-1.1-1.4-1.7c0.4,0,0.9,0,1.3,0c0.5,0,0.9,0,1.4,0C12.5,14.9,12,15.4,11.5,16L11.5,16z M17.5,17.3
	c0,0.6-0.3,1.1-0.8,1.4c-0.7,0.4-2.3-0.1-3.9-1.6c-0.2-0.2-0.4-0.3-0.6-0.5c0.7-0.8,1.3-1.6,1.9-2.4c1-0.1,2.1-0.2,3.1-0.5
	c0,0.2,0.1,0.4,0.1,0.6l0,0C17.6,15.3,17.7,16.3,17.5,17.3L17.5,17.3z M18.3,12.4L18.3,12.4c-0.1,0-0.3,0.1-0.4,0.1
	c-0.3-1-0.7-2-1.2-2.9c0.4-0.9,0.8-1.9,1.1-2.9c0.2,0.1,0.5,0.1,0.7,0.2c2.1,0.7,3.4,1.8,3.4,2.7C22,10.5,20.6,11.7,18.3,12.4
	L18.3,12.4z"/>
</svg>
